ffmpeg started on 2016-11-27 at 07:01:48
Report written to "Output/NVENCh264/results/ffmpeg/crowd_run_2160p50llhq4500k.log"
Command line:
Tools/ffmpeg/ffmpeg -benchmark -y -i Input/y4m/crowd_run_2160p50.y4m -c:v h264_nvenc -preset llhq -b:v 4500k -an Output/NVENCh264/encoded/crowd_run_2160p50llhq4500k.mkv
ffmpeg version N-82227-gdb23fde Copyright (c) 2000-2016 the FFmpeg developers
  built with gcc 5.4.0 (Ubuntu 5.4.0-6ubuntu1~16.04.2) 20160609
  configuration: --prefix=/home/jaroslav/ffmpeg_build --pkg-config-flags=--static --extra-cflags=-I/home/jaroslav/ffmpeg_build/include --extra-ldflags=-L/home/jaroslav/ffmpeg_build/lib --bindir=/home/jaroslav/bin --enable-gpl --enable-libass --enable-libfdk-aac --enable-libfreetype --enable-libmp3lame --enable-libopus --enable-libtheora --enable-libvorbis --enable-libvpx --enable-libx264 --enable-libx265 --enable-nvenc --enable-libmfx --enable-libxvid --enable-libgsm --enable-libopencore-amrnb --enable-version3 --enable-nonfree
  libavutil      55. 35.100 / 55. 35.100
  libavcodec     57. 66.101 / 57. 66.101
  libavformat    57. 57.100 / 57. 57.100
  libavdevice    57.  2.100 / 57.  2.100
  libavfilter     6. 66.100 /  6. 66.100
  libswscale      4.  3.100 /  4.  3.100
  libswresample   2.  4.100 /  2.  4.100
  libpostproc    54.  2.100 / 54.  2.100
Input #0, yuv4mpegpipe, from 'Input/y4m/crowd_run_2160p50.y4m':
  Duration: 00:00:10.00, start: 0.000000, bitrate: 4976642 kb/s
    Stream #0:0: Video: rawvideo (I420 / 0x30323449), yuv420p(progressive), 3840x2160, SAR 1:1 DAR 16:9, 50 fps, 50 tbr, 50 tbn, 50 tbc
[h264_nvenc @ 0x27571c0] The variable bitrate rate-control requires the 'qmin' and/or 'qmax' option set.
Output #0, matroska, to 'Output/NVENCh264/encoded/crowd_run_2160p50llhq4500k.mkv':
  Metadata:
    encoder         : Lavf57.57.100
    Stream #0:0: Video: h264 (h264_nvenc) (Main) (H264 / 0x34363248), yuv420p, 3840x2160 [SAR 1:1 DAR 16:9], q=-1--1, 4500 kb/s, 50 fps, 1k tbn, 50 tbc
    Metadata:
      encoder         : Lavc57.66.101 h264_nvenc
    Side data:
      cpb: bitrate max/min/avg: 0/0/4500000 buffer size: 9000000 vbv_delay: -1
Stream mapping:
  Stream #0:0 -> #0:0 (rawvideo (native) -> h264 (h264_nvenc))
Press [q] to stop, [?] for help
frame=    9 fps=0.0 q=0.0 size=       0kB time=00:00:00.00 bitrate=N/A speed=   0x    frame=   21 fps= 20 q=0.0 size=       0kB time=00:00:00.00 bitrate=N/A speed=   0x    frame=   30 fps= 19 q=0.0 size=       0kB time=00:00:00.00 bitrate=N/A speed=   0x    frame=   46 fps= 22 q=49.0 size=       1kB time=00:00:00.30 bitrate=  19.9kbits/s speed=0.144x    frame=   64 fps= 24 q=49.0 size=       1kB time=00:00:00.66 bitrate=   9.0kbits/s speed=0.253x    frame=   82 fps= 26 q=49.0 size=       1kB time=00:00:01.02 bitrate=   5.9kbits/s speed=0.326x    frame=  100 fps= 27 q=49.0 size=       1kB time=00:00:01.38 bitrate=   4.3kbits/s speed=0.378x    frame=  112 fps= 18 q=49.0 size=       1kB time=00:00:01.62 bitrate=   3.7kbits/s speed=0.265x    frame=  113 fps= 12 q=49.0 size=       1kB time=00:00:01.64 bitrate=   3.6kbits/s speed=0.18x    frame=  114 fps=9.4 q=49.0 size=       1kB time=00:00:01.66 bitrate=   3.6kbits/s speed=0.137x    frame=  132 fps= 10 q=49.0 size=       1kB time=00:00:02.02 bitrate=   3.0kbits/s speed=0.16x    frame=  150 fps= 11 q=49.0 size=       1kB time=00:00:02.38 bitrate=   2.5kbits/s speed=0.181x    frame=  167 fps= 12 q=49.0 size=       1kB time=00:00:02.72 bitrate=   2.2kbits/s speed=0.199x    frame=  184 fps= 13 q=49.0 size=       1kB time=00:00:03.06 bitrate=   2.0kbits/s speed=0.216x    frame=  201 fps= 14 q=49.0 size=       1kB time=00:00:03.40 bitrate=   1.8kbits/s speed=0.231x    frame=  218 fps= 14 q=49.0 size=       1kB time=00:00:03.74 bitrate=   1.6kbits/s speed=0.246x    frame=  236 fps= 15 q=49.0 size=       1kB time=00:00:04.10 bitrate=   1.5kbits/s speed=0.261x    frame=  254 fps= 16 q=49.0 size=       1kB time=00:00:04.46 bitrate=   1.3kbits/s speed=0.274x    frame=  272 fps= 16 q=49.0 size=       1kB time=00:00:04.82 bitrate=   1.2kbits/s speed=0.287x    frame=  289 fps= 17 q=49.0 size=    3177kB time=00:00:05.16 bitrate=5043.0kbits/s speed=0.298x    frame=  307 fps= 17 q=49.0 size=    3177kB time=00:00:05.52 bitrate=4714.1kbits/s speed=0.31x    frame=  325 fps= 18 q=49.0 size=    3177kB time=00:00:05.88 bitrate=4425.6kbits/s speed=0.321x    frame=  343 fps= 18 q=49.0 size=    3177kB time=00:00:06.24 bitrate=4170.3kbits/s speed=0.331x    frame=  361 fps= 19 q=49.0 size=    3177kB time=00:00:06.60 bitrate=3942.8kbits/s speed=0.341x    frame=  379 fps= 19 q=49.0 size=    3177kB time=00:00:06.96 bitrate=3738.9kbits/s speed=0.35x    frame=  397 fps= 19 q=49.0 size=    3177kB time=00:00:07.32 bitrate=3555.1kbits/s speed=0.359x    frame=  405 fps= 19 q=49.0 size=    3177kB time=00:00:07.48 bitrate=3479.0kbits/s speed=0.357x    frame=  423 fps= 20 q=49.0 size=    3177kB time=00:00:07.84 bitrate=3319.3kbits/s speed=0.366x    frame=  441 fps= 20 q=49.0 size=    3177kB time=00:00:08.20 bitrate=3173.6kbits/s speed=0.373x    frame=  451 fps= 20 q=49.0 size=    3177kB time=00:00:08.40 bitrate=3098.1kbits/s speed=0.373x    frame=  469 fps= 20 q=49.0 size=    3177kB time=00:00:08.76 bitrate=2970.7kbits/s speed=0.38x    frame=  487 fps= 21 q=49.0 size=    3177kB time=00:00:09.12 bitrate=2853.5kbits/s speed=0.387x    frame=  500 fps= 21 q=49.0 Lsize=    6528kB time=00:00:09.98 bitrate=5357.7kbits/s speed=0.416x    
video:6523kB audio:0kB subtitle:0kB other streams:0kB global headers:0kB muxing overhead: 0.065165%
bench: utime=1.176s
bench: maxrss=1398488kB
